<svg width="440" height="281" viewBox="0 0 440 281" fill="none" xmlns="http://www.w3.org/2000/svg">
<path d="M-47.3693 37.9287C-26.9151 -11.7015 42.9916 -12.7693 64.9523 36.2129C71.0987 49.9223 82.0777 60.8887 95.7941 67.0195L98.6971 68.3171C123.728 79.5051 138.944 105.301 136.626 132.621C131.521 192.81 204.57 226.336 246.877 183.22L301.915 127.128C315.17 113.619 337.981 118.563 344.455 136.346C353.203 160.378 387.852 158.311 393.68 133.41L408.363 70.687C418.853 25.8734 481.938 23.956 495.131 68.05L555.024 268.236C574.445 333.148 525.051 398.176 457.308 396.881L-43.9019 387.297C-114.264 385.952 -161.262 314.277 -134.446 249.211L-47.3693 37.9287Z" fill="#C7DCBB"/>
</svg>
