<svg width="1920" height="426" viewBox="0 0 1920 426" fill="none" xmlns="http://www.w3.org/2000/svg">
<path d="M-95 131.42C-95 74.0712 -31.3346 39.6359 16.6617 71.0245C42.2912 87.7856 75.7085 86.5454 100.025 67.9305L161.334 20.9968C195.629 -5.25671 242.904 -6.52598 278.558 17.8495L436.199 125.623C446.709 132.808 458.494 137.92 470.921 140.685L667.108 184.332C682.382 187.73 698.24 187.496 713.407 183.65L930.029 128.713C947.359 124.318 965.55 124.65 982.708 129.673L1146.25 177.551C1172.33 185.186 1200.39 181.879 1223.98 168.39L1304.99 122.071C1330.57 107.442 1361.31 104.843 1388.98 114.969L1477.01 147.172C1490.21 152.003 1504.29 153.995 1518.31 153.018L1733.63 138.025C1748.06 137.02 1762.1 132.897 1774.78 125.941L1859.9 79.2428C1926.55 42.6838 2008 90.9048 2008 166.917V326C2008 381.228 1963.23 426 1908 426H4.99995C-50.2285 426 -95 381.228 -95 326V131.42Z" fill="#73AF67" fill-opacity="0.4"/>
</svg>
